<svg viewBox="48 50 324 93" xmlns="http://www.w3.org/2000/svg" xmlns:xlink="http://www.w3.org/1999/xlink">
  <defs>
    <g>
<g id="glyph-0-0">
</g>
<g id="glyph-0-1">
<path d="M -0.03125 1.078125 L -0.03125 0.609375 L 6.015625 0.609375 L 6.015625 1.078125 Z M -0.03125 1.078125 "/>
</g>
<g id="glyph-0-2">
<path d="M 0.5625 0.09375 L 4.5625 -7.25 L 5.4375 -7.25 L 1.453125 0.09375 Z M 0.5625 0.09375 "/>
</g>
<g id="glyph-0-3">
<path d="M 4.546875 0.09375 L 0.5625 -7.25 L 1.4375 -7.25 L 5.4375 0.09375 Z M 4.546875 0.09375 "/>
</g>
<g id="glyph-0-4">
<path d="M 3.421875 -5.859375 L 1.96875 -6.984375 L 1.96875 -7.125 L 2.921875 -7.125 L 4.03125 -5.96875 L 4.03125 -5.859375 Z M 3.421875 -5.859375 "/>
</g>
<g id="glyph-0-5">
<path d="M 1.15625 0 L 1.15625 -6.59375 L 2.09375 -6.59375 L 2.09375 -0.765625 L 5.375 -0.765625 L 5.375 0 Z M 1.15625 0 "/>
</g>
<g id="glyph-0-6">
<path d="M 3.34375 -4.125 L 2.65625 -4.125 L 2.453125 -7.25 L 3.546875 -7.25 Z M 3.34375 -4.125 "/>
</g>
<g id="glyph-0-7">
<path d="M 0.5625 -0.75 L 0.5625 -1.5 L 4.75 -3.296875 L 0.5625 -5.078125 L 0.5625 -5.828125 L 5.421875 -3.796875 L 5.421875 -2.78125 Z M 0.5625 -0.75 "/>
</g>
<g id="glyph-0-8">
<path d="M 0.5625 -2.78125 L 0.5625 -3.796875 L 5.421875 -5.828125 L 5.421875 -5.078125 L 1.234375 -3.296875 L 5.421875 -1.5 L 5.421875 -0.75 Z M 0.5625 -2.78125 "/>
</g>
</g>
    <filter id="glow" color-interpolation-filters="sRGB" x="-20%" y="-20%" width="140%" height="140%">
      <feGaussianBlur in="SourceGraphic" stdDeviation="1.8" result="blur1"/>
      <feGaussianBlur in="SourceGraphic" stdDeviation="0.6" result="blur2"/>
      <feMerge>
        <feMergeNode in="blur1"/>
        <feMergeNode in="blur2"/>
        <feMergeNode in="SourceGraphic"/>
      </feMerge>
    </filter>
  </defs>
  <g fill="#cc44ff" filter="url(#glow)" opacity="0">
    <animate attributeName="opacity" values="0;1" dur="2s" fill="freeze"/>
    <animate attributeName="fill" values="#cc44ff;#ff88ff;#cc44ff" dur="3s" repeatCount="indefinite" begin="2s"/>
    <use xlink:href="#glyph-0-0" x="56.8" y="65.05"/>
<use xlink:href="#glyph-0-0" x="62.8" y="65.05"/>
<use xlink:href="#glyph-0-0" x="68.8" y="65.05"/>
<use xlink:href="#glyph-0-0" x="74.8" y="65.05"/>
<use xlink:href="#glyph-0-0" x="80.8" y="65.05"/>
<use xlink:href="#glyph-0-1" x="86.8" y="65.05"/>
<use xlink:href="#glyph-0-1" x="92.8" y="65.05"/>
<use xlink:href="#glyph-0-1" x="98.8" y="65.05"/>
<use xlink:href="#glyph-0-1" x="104.8" y="65.05"/>
<use xlink:href="#glyph-0-1" x="110.8" y="65.05"/>
<use xlink:href="#glyph-0-1" x="116.8" y="65.05"/>
<use xlink:href="#glyph-0-0" x="122.8" y="65.05"/>
<use xlink:href="#glyph-0-0" x="128.8" y="65.05"/>
<use xlink:href="#glyph-0-1" x="134.8" y="65.05"/>
<use xlink:href="#glyph-0-1" x="140.8" y="65.05"/>
<use xlink:href="#glyph-0-1" x="146.8" y="65.05"/>
<use xlink:href="#glyph-0-1" x="152.8" y="65.05"/>
<use xlink:href="#glyph-0-1" x="158.8" y="65.05"/>
<use xlink:href="#glyph-0-1" x="164.8" y="65.05"/>
<use xlink:href="#glyph-0-0" x="170.8" y="65.05"/>
<use xlink:href="#glyph-0-0" x="176.8" y="65.05"/>
<use xlink:href="#glyph-0-0" x="182.8" y="65.05"/>
<use xlink:href="#glyph-0-1" x="188.8" y="65.05"/>
<use xlink:href="#glyph-0-1" x="194.8" y="65.05"/>
<use xlink:href="#glyph-0-0" x="200.8" y="65.05"/>
<use xlink:href="#glyph-0-0" x="206.8" y="65.05"/>
<use xlink:href="#glyph-0-0" x="212.8" y="65.05"/>
<use xlink:href="#glyph-0-1" x="218.8" y="65.05"/>
<use xlink:href="#glyph-0-1" x="224.8" y="65.05"/>
<use xlink:href="#glyph-0-0" x="230.8" y="65.05"/>
<use xlink:href="#glyph-0-0" x="236.8" y="65.05"/>
<use xlink:href="#glyph-0-0" x="242.8" y="65.05"/>
<use xlink:href="#glyph-0-1" x="248.8" y="65.05"/>
<use xlink:href="#glyph-0-1" x="254.8" y="65.05"/>
<use xlink:href="#glyph-0-1" x="260.8" y="65.05"/>
<use xlink:href="#glyph-0-1" x="266.8" y="65.05"/>
<use xlink:href="#glyph-0-0" x="272.8" y="65.05"/>
<use xlink:href="#glyph-0-0" x="278.8" y="65.05"/>
<use xlink:href="#glyph-0-0" x="284.8" y="65.05"/>
<use xlink:href="#glyph-0-0" x="290.8" y="65.05"/>
<use xlink:href="#glyph-0-1" x="296.8" y="65.05"/>
<use xlink:href="#glyph-0-1" x="302.8" y="65.05"/>
<use xlink:href="#glyph-0-1" x="308.8" y="65.05"/>
<use xlink:href="#glyph-0-1" x="314.8" y="65.05"/>
<use xlink:href="#glyph-0-1" x="320.8" y="65.05"/>
<use xlink:href="#glyph-0-1" x="326.8" y="65.05"/>
    <use xlink:href="#glyph-0-0" x="56.8" y="76.4"/>
<use xlink:href="#glyph-0-0" x="62.8" y="76.4"/>
<use xlink:href="#glyph-0-0" x="68.8" y="76.4"/>
<use xlink:href="#glyph-0-0" x="74.8" y="76.4"/>
<use xlink:href="#glyph-0-2" x="80.8" y="76.4"/>
<use xlink:href="#glyph-0-3" x="86.8" y="76.4"/>
<use xlink:href="#glyph-0-1" x="92.8" y="76.4"/>
<use xlink:href="#glyph-0-1" x="98.8" y="76.4"/>
<use xlink:href="#glyph-0-0" x="104.8" y="76.4"/>
<use xlink:href="#glyph-0-0" x="110.8" y="76.4"/>
<use xlink:href="#glyph-0-1" x="116.8" y="76.4"/>
<use xlink:href="#glyph-0-3" x="122.8" y="76.4"/>
<use xlink:href="#glyph-0-2" x="128.8" y="76.4"/>
<use xlink:href="#glyph-0-3" x="134.8" y="76.4"/>
<use xlink:href="#glyph-0-0" x="140.8" y="76.4"/>
<use xlink:href="#glyph-0-0" x="146.8" y="76.4"/>
<use xlink:href="#glyph-0-1" x="152.8" y="76.4"/>
<use xlink:href="#glyph-0-0" x="158.8" y="76.4"/>
<use xlink:href="#glyph-0-0" x="164.8" y="76.4"/>
<use xlink:href="#glyph-0-3" x="170.8" y="76.4"/>
<use xlink:href="#glyph-0-0" x="176.8" y="76.4"/>
<use xlink:href="#glyph-0-2" x="182.8" y="76.4"/>
<use xlink:href="#glyph-0-3" x="188.8" y="76.4"/>
<use xlink:href="#glyph-0-0" x="194.8" y="76.4"/>
<use xlink:href="#glyph-0-3" x="200.8" y="76.4"/>
<use xlink:href="#glyph-0-0" x="206.8" y="76.4"/>
<use xlink:href="#glyph-0-2" x="212.8" y="76.4"/>
<use xlink:href="#glyph-0-3" x="218.8" y="76.4"/>
<use xlink:href="#glyph-0-0" x="224.8" y="76.4"/>
<use xlink:href="#glyph-0-3" x="230.8" y="76.4"/>
<use xlink:href="#glyph-0-0" x="236.8" y="76.4"/>
<use xlink:href="#glyph-0-2" x="242.8" y="76.4"/>
<use xlink:href="#glyph-0-3" x="248.8" y="76.4"/>
<use xlink:href="#glyph-0-0" x="254.8" y="76.4"/>
<use xlink:href="#glyph-0-0" x="260.8" y="76.4"/>
<use xlink:href="#glyph-0-1" x="266.8" y="76.4"/>
<use xlink:href="#glyph-0-4" x="272.8" y="76.4"/>
<use xlink:href="#glyph-0-3" x="278.8" y="76.4"/>
<use xlink:href="#glyph-0-0" x="284.8" y="76.4"/>
<use xlink:href="#glyph-0-2" x="290.8" y="76.4"/>
<use xlink:href="#glyph-0-3" x="296.8" y="76.4"/>
<use xlink:href="#glyph-0-1" x="302.8" y="76.4"/>
<use xlink:href="#glyph-0-1" x="308.8" y="76.4"/>
<use xlink:href="#glyph-0-0" x="314.8" y="76.4"/>
<use xlink:href="#glyph-0-0" x="320.8" y="76.4"/>
<use xlink:href="#glyph-0-1" x="326.8" y="76.4"/>
<use xlink:href="#glyph-0-3" x="332.8" y="76.4"/>
    <use xlink:href="#glyph-0-0" x="56.8" y="87.75"/>
<use xlink:href="#glyph-0-0" x="62.8" y="87.75"/>
<use xlink:href="#glyph-0-0" x="68.8" y="87.75"/>
<use xlink:href="#glyph-0-0" x="74.8" y="87.75"/>
<use xlink:href="#glyph-0-3" x="80.8" y="87.75"/>
<use xlink:href="#glyph-0-2" x="86.8" y="87.75"/>
<use xlink:href="#glyph-0-1" x="92.8" y="87.75"/>
<use xlink:href="#glyph-0-2" x="98.8" y="87.75"/>
<use xlink:href="#glyph-0-3" x="104.8" y="87.75"/>
<use xlink:href="#glyph-0-0" x="110.8" y="87.75"/>
<use xlink:href="#glyph-0-3" x="116.8" y="87.75"/>
<use xlink:href="#glyph-0-2" x="122.8" y="87.75"/>
<use xlink:href="#glyph-0-3" x="128.8" y="87.75"/>
<use xlink:href="#glyph-0-0" x="134.8" y="87.75"/>
<use xlink:href="#glyph-0-3" x="140.8" y="87.75"/>
<use xlink:href="#glyph-0-0" x="146.8" y="87.75"/>
<use xlink:href="#glyph-0-3" x="152.8" y="87.75"/>
<use xlink:href="#glyph-0-5" x="158.8" y="87.75"/>
<use xlink:href="#glyph-0-3" x="164.8" y="87.75"/>
<use xlink:href="#glyph-0-0" x="170.8" y="87.75"/>
<use xlink:href="#glyph-0-3" x="176.8" y="87.75"/>
<use xlink:href="#glyph-0-3" x="182.8" y="87.75"/>
<use xlink:href="#glyph-0-0" x="188.8" y="87.75"/>
<use xlink:href="#glyph-0-4" x="194.8" y="87.75"/>
<use xlink:href="#glyph-0-3" x="200.8" y="87.75"/>
<use xlink:href="#glyph-0-4" x="206.8" y="87.75"/>
<use xlink:href="#glyph-0-3" x="212.8" y="87.75"/>
<use xlink:href="#glyph-0-2" x="218.8" y="87.75"/>
<use xlink:href="#glyph-0-6" x="224.8" y="87.75"/>
<use xlink:href="#glyph-0-2" x="230.8" y="87.75"/>
<use xlink:href="#glyph-0-6" x="236.8" y="87.75"/>
<use xlink:href="#glyph-0-3" x="242.8" y="87.75"/>
<use xlink:href="#glyph-0-0" x="248.8" y="87.75"/>
<use xlink:href="#glyph-0-3" x="254.8" y="87.75"/>
<use xlink:href="#glyph-0-0" x="260.8" y="87.75"/>
<use xlink:href="#glyph-0-3" x="266.8" y="87.75"/>
<use xlink:href="#glyph-0-2" x="272.8" y="87.75"/>
<use xlink:href="#glyph-0-3" x="278.8" y="87.75"/>
<use xlink:href="#glyph-0-0" x="284.8" y="87.75"/>
<use xlink:href="#glyph-0-3" x="290.8" y="87.75"/>
<use xlink:href="#glyph-0-2" x="296.8" y="87.75"/>
<use xlink:href="#glyph-0-1" x="302.8" y="87.75"/>
<use xlink:href="#glyph-0-2" x="308.8" y="87.75"/>
<use xlink:href="#glyph-0-3" x="314.8" y="87.75"/>
<use xlink:href="#glyph-0-0" x="320.8" y="87.75"/>
<use xlink:href="#glyph-0-3" x="326.8" y="87.75"/>
<use xlink:href="#glyph-0-2" x="332.8" y="87.75"/>
    <use xlink:href="#glyph-0-0" x="56.8" y="99.1"/>
<use xlink:href="#glyph-0-0" x="62.8" y="99.1"/>
<use xlink:href="#glyph-0-0" x="68.8" y="99.1"/>
<use xlink:href="#glyph-0-0" x="74.8" y="99.1"/>
<use xlink:href="#glyph-0-0" x="80.8" y="99.1"/>
<use xlink:href="#glyph-0-0" x="86.8" y="99.1"/>
<use xlink:href="#glyph-0-0" x="92.8" y="99.1"/>
<use xlink:href="#glyph-0-3" x="98.8" y="99.1"/>
<use xlink:href="#glyph-0-0" x="104.8" y="99.1"/>
<use xlink:href="#glyph-0-3" x="110.8" y="99.1"/>
<use xlink:href="#glyph-0-0" x="116.8" y="99.1"/>
<use xlink:href="#glyph-0-3" x="122.8" y="99.1"/>
<use xlink:href="#glyph-0-0" x="128.8" y="99.1"/>
<use xlink:href="#glyph-0-3" x="134.8" y="99.1"/>
<use xlink:href="#glyph-0-0" x="140.8" y="99.1"/>
<use xlink:href="#glyph-0-3" x="146.8" y="99.1"/>
<use xlink:href="#glyph-0-0" x="152.8" y="99.1"/>
<use xlink:href="#glyph-0-0" x="158.8" y="99.1"/>
<use xlink:href="#glyph-0-1" x="164.8" y="99.1"/>
<use xlink:href="#glyph-0-1" x="170.8" y="99.1"/>
<use xlink:href="#glyph-0-0" x="176.8" y="99.1"/>
<use xlink:href="#glyph-0-3" x="182.8" y="99.1"/>
<use xlink:href="#glyph-0-4" x="188.8" y="99.1"/>
<use xlink:href="#glyph-0-3" x="194.8" y="99.1"/>
<use xlink:href="#glyph-0-2" x="200.8" y="99.1"/>
<use xlink:href="#glyph-0-0" x="206.8" y="99.1"/>
<use xlink:href="#glyph-0-7" x="212.8" y="99.1"/>
<use xlink:href="#glyph-0-0" x="218.8" y="99.1"/>
<use xlink:href="#glyph-0-8" x="224.8" y="99.1"/>
<use xlink:href="#glyph-0-0" x="230.8" y="99.1"/>
<use xlink:href="#glyph-0-0" x="236.8" y="99.1"/>
<use xlink:href="#glyph-0-0" x="242.8" y="99.1"/>
<use xlink:href="#glyph-0-3" x="248.8" y="99.1"/>
<use xlink:href="#glyph-0-0" x="254.8" y="99.1"/>
<use xlink:href="#glyph-0-3" x="260.8" y="99.1"/>
<use xlink:href="#glyph-0-0" x="266.8" y="99.1"/>
<use xlink:href="#glyph-0-3" x="272.8" y="99.1"/>
<use xlink:href="#glyph-0-0" x="278.8" y="99.1"/>
<use xlink:href="#glyph-0-3" x="284.8" y="99.1"/>
<use xlink:href="#glyph-0-0" x="290.8" y="99.1"/>
<use xlink:href="#glyph-0-3" x="296.8" y="99.1"/>
<use xlink:href="#glyph-0-0" x="302.8" y="99.1"/>
<use xlink:href="#glyph-0-3" x="308.8" y="99.1"/>
<use xlink:href="#glyph-0-0" x="314.8" y="99.1"/>
<use xlink:href="#glyph-0-3" x="320.8" y="99.1"/>
<use xlink:href="#glyph-0-0" x="326.8" y="99.1"/>
<use xlink:href="#glyph-0-3" x="332.8" y="99.1"/>
    <use xlink:href="#glyph-0-0" x="56.8" y="110.45"/>
<use xlink:href="#glyph-0-0" x="62.8" y="110.45"/>
<use xlink:href="#glyph-0-0" x="68.8" y="110.45"/>
<use xlink:href="#glyph-0-0" x="74.8" y="110.45"/>
<use xlink:href="#glyph-0-0" x="80.8" y="110.45"/>
<use xlink:href="#glyph-0-0" x="86.8" y="110.45"/>
<use xlink:href="#glyph-0-0" x="92.8" y="110.45"/>
<use xlink:href="#glyph-0-0" x="98.8" y="110.45"/>
<use xlink:href="#glyph-0-3" x="104.8" y="110.45"/>
<use xlink:href="#glyph-0-0" x="110.8" y="110.45"/>
<use xlink:href="#glyph-0-3" x="116.8" y="110.45"/>
<use xlink:href="#glyph-0-0" x="122.8" y="110.45"/>
<use xlink:href="#glyph-0-3" x="128.8" y="110.45"/>
<use xlink:href="#glyph-0-0" x="134.8" y="110.45"/>
<use xlink:href="#glyph-0-3" x="140.8" y="110.45"/>
<use xlink:href="#glyph-0-0" x="146.8" y="110.45"/>
<use xlink:href="#glyph-0-3" x="152.8" y="110.45"/>
<use xlink:href="#glyph-0-0" x="158.8" y="110.45"/>
<use xlink:href="#glyph-0-3" x="164.8" y="110.45"/>
<use xlink:href="#glyph-0-2" x="170.8" y="110.45"/>
<use xlink:href="#glyph-0-3" x="176.8" y="110.45"/>
<use xlink:href="#glyph-0-0" x="182.8" y="110.45"/>
<use xlink:href="#glyph-0-3" x="188.8" y="110.45"/>
<use xlink:href="#glyph-0-0" x="194.8" y="110.45"/>
<use xlink:href="#glyph-0-0" x="200.8" y="110.45"/>
<use xlink:href="#glyph-0-3" x="206.8" y="110.45"/>
<use xlink:href="#glyph-0-2" x="212.8" y="110.45"/>
<use xlink:href="#glyph-0-6" x="218.8" y="110.45"/>
<use xlink:href="#glyph-0-2" x="224.8" y="110.45"/>
<use xlink:href="#glyph-0-3" x="230.8" y="110.45"/>
<use xlink:href="#glyph-0-4" x="236.8" y="110.45"/>
<use xlink:href="#glyph-0-3" x="242.8" y="110.45"/>
<use xlink:href="#glyph-0-0" x="248.8" y="110.45"/>
<use xlink:href="#glyph-0-3" x="254.8" y="110.45"/>
<use xlink:href="#glyph-0-0" x="260.8" y="110.45"/>
<use xlink:href="#glyph-0-3" x="266.8" y="110.45"/>
<use xlink:href="#glyph-0-0" x="272.8" y="110.45"/>
<use xlink:href="#glyph-0-3" x="278.8" y="110.45"/>
<use xlink:href="#glyph-0-1" x="284.8" y="110.45"/>
<use xlink:href="#glyph-0-3" x="290.8" y="110.45"/>
<use xlink:href="#glyph-0-0" x="296.8" y="110.45"/>
<use xlink:href="#glyph-0-3" x="302.8" y="110.45"/>
<use xlink:href="#glyph-0-0" x="308.8" y="110.45"/>
<use xlink:href="#glyph-0-3" x="314.8" y="110.45"/>
<use xlink:href="#glyph-0-1" x="320.8" y="110.45"/>
<use xlink:href="#glyph-0-3" x="326.8" y="110.45"/>
<use xlink:href="#glyph-0-0" x="332.8" y="110.45"/>
<use xlink:href="#glyph-0-3" x="338.8" y="110.45"/>
<use xlink:href="#glyph-0-1" x="344.8" y="110.45"/>
<use xlink:href="#glyph-0-1" x="350.8" y="110.45"/>
    <use xlink:href="#glyph-0-0" x="56.8" y="121.8"/>
<use xlink:href="#glyph-0-0" x="62.8" y="121.8"/>
<use xlink:href="#glyph-0-0" x="68.8" y="121.8"/>
<use xlink:href="#glyph-0-0" x="74.8" y="121.8"/>
<use xlink:href="#glyph-0-0" x="80.8" y="121.8"/>
<use xlink:href="#glyph-0-0" x="86.8" y="121.8"/>
<use xlink:href="#glyph-0-0" x="92.8" y="121.8"/>
<use xlink:href="#glyph-0-0" x="98.8" y="121.8"/>
<use xlink:href="#glyph-0-0" x="104.8" y="121.8"/>
<use xlink:href="#glyph-0-3" x="110.8" y="121.8"/>
<use xlink:href="#glyph-0-0" x="116.8" y="121.8"/>
<use xlink:href="#glyph-0-3" x="122.8" y="121.8"/>
<use xlink:href="#glyph-0-1" x="128.8" y="121.8"/>
<use xlink:href="#glyph-0-3" x="134.8" y="121.8"/>
<use xlink:href="#glyph-0-0" x="140.8" y="121.8"/>
<use xlink:href="#glyph-0-3" x="146.8" y="121.8"/>
<use xlink:href="#glyph-0-0" x="152.8" y="121.8"/>
<use xlink:href="#glyph-0-3" x="158.8" y="121.8"/>
<use xlink:href="#glyph-0-1" x="164.8" y="121.8"/>
<use xlink:href="#glyph-0-3" x="170.8" y="121.8"/>
<use xlink:href="#glyph-0-0" x="176.8" y="121.8"/>
<use xlink:href="#glyph-0-3" x="182.8" y="121.8"/>
<use xlink:href="#glyph-0-1" x="188.8" y="121.8"/>
<use xlink:href="#glyph-0-3" x="194.8" y="121.8"/>
<use xlink:href="#glyph-0-0" x="200.8" y="121.8"/>
<use xlink:href="#glyph-0-2" x="206.8" y="121.8"/>
<use xlink:href="#glyph-0-3" x="212.8" y="121.8"/>
<use xlink:href="#glyph-0-1" x="218.8" y="121.8"/>
<use xlink:href="#glyph-0-3" x="224.8" y="121.8"/>
<use xlink:href="#glyph-0-3" x="230.8" y="121.8"/>
<use xlink:href="#glyph-0-0" x="236.8" y="121.8"/>
<use xlink:href="#glyph-0-3" x="242.8" y="121.8"/>
<use xlink:href="#glyph-0-1" x="248.8" y="121.8"/>
<use xlink:href="#glyph-0-3" x="254.8" y="121.8"/>
<use xlink:href="#glyph-0-3" x="260.8" y="121.8"/>
<use xlink:href="#glyph-0-0" x="266.8" y="121.8"/>
<use xlink:href="#glyph-0-3" x="272.8" y="121.8"/>
<use xlink:href="#glyph-0-1" x="278.8" y="121.8"/>
<use xlink:href="#glyph-0-1" x="284.8" y="121.8"/>
<use xlink:href="#glyph-0-1" x="290.8" y="121.8"/>
<use xlink:href="#glyph-0-1" x="296.8" y="121.8"/>
<use xlink:href="#glyph-0-2" x="302.8" y="121.8"/>
<use xlink:href="#glyph-0-0" x="308.8" y="121.8"/>
<use xlink:href="#glyph-0-2" x="314.8" y="121.8"/>
<use xlink:href="#glyph-0-3" x="320.8" y="121.8"/>
<use xlink:href="#glyph-0-1" x="326.8" y="121.8"/>
<use xlink:href="#glyph-0-1" x="332.8" y="121.8"/>
<use xlink:href="#glyph-0-1" x="338.8" y="121.8"/>
<use xlink:href="#glyph-0-1" x="344.8" y="121.8"/>
<use xlink:href="#glyph-0-1" x="350.8" y="121.8"/>
<use xlink:href="#glyph-0-3" x="356.8" y="121.8"/>
    <use xlink:href="#glyph-0-0" x="56.8" y="133.15"/>
<use xlink:href="#glyph-0-0" x="62.8" y="133.15"/>
<use xlink:href="#glyph-0-0" x="68.8" y="133.15"/>
<use xlink:href="#glyph-0-0" x="74.8" y="133.15"/>
<use xlink:href="#glyph-0-0" x="80.8" y="133.15"/>
<use xlink:href="#glyph-0-0" x="86.8" y="133.15"/>
<use xlink:href="#glyph-0-0" x="92.8" y="133.15"/>
<use xlink:href="#glyph-0-0" x="98.8" y="133.15"/>
<use xlink:href="#glyph-0-0" x="104.8" y="133.15"/>
<use xlink:href="#glyph-0-0" x="110.8" y="133.15"/>
<use xlink:href="#glyph-0-3" x="116.8" y="133.15"/>
<use xlink:href="#glyph-0-2" x="122.8" y="133.15"/>
<use xlink:href="#glyph-0-1" x="128.8" y="133.15"/>
<use xlink:href="#glyph-0-2" x="134.8" y="133.15"/>
<use xlink:href="#glyph-0-0" x="140.8" y="133.15"/>
<use xlink:href="#glyph-0-0" x="146.8" y="133.15"/>
<use xlink:href="#glyph-0-3" x="152.8" y="133.15"/>
<use xlink:href="#glyph-0-2" x="158.8" y="133.15"/>
<use xlink:href="#glyph-0-1" x="164.8" y="133.15"/>
<use xlink:href="#glyph-0-2" x="170.8" y="133.15"/>
<use xlink:href="#glyph-0-3" x="176.8" y="133.15"/>
<use xlink:href="#glyph-0-2" x="182.8" y="133.15"/>
<use xlink:href="#glyph-0-1" x="188.8" y="133.15"/>
<use xlink:href="#glyph-0-2" x="194.8" y="133.15"/>
<use xlink:href="#glyph-0-0" x="200.8" y="133.15"/>
<use xlink:href="#glyph-0-3" x="206.8" y="133.15"/>
<use xlink:href="#glyph-0-2" x="212.8" y="133.15"/>
<use xlink:href="#glyph-0-1" x="218.8" y="133.15"/>
<use xlink:href="#glyph-0-2" x="224.8" y="133.15"/>
<use xlink:href="#glyph-0-0" x="230.8" y="133.15"/>
<use xlink:href="#glyph-0-3" x="236.8" y="133.15"/>
<use xlink:href="#glyph-0-2" x="242.8" y="133.15"/>
<use xlink:href="#glyph-0-1" x="248.8" y="133.15"/>
<use xlink:href="#glyph-0-2" x="254.8" y="133.15"/>
<use xlink:href="#glyph-0-0" x="260.8" y="133.15"/>
<use xlink:href="#glyph-0-3" x="266.8" y="133.15"/>
<use xlink:href="#glyph-0-2" x="272.8" y="133.15"/>
<use xlink:href="#glyph-0-1" x="278.8" y="133.15"/>
<use xlink:href="#glyph-0-1" x="284.8" y="133.15"/>
<use xlink:href="#glyph-0-1" x="290.8" y="133.15"/>
<use xlink:href="#glyph-0-2" x="296.8" y="133.15"/>
<use xlink:href="#glyph-0-0" x="302.8" y="133.15"/>
<use xlink:href="#glyph-0-0" x="308.8" y="133.15"/>
<use xlink:href="#glyph-0-3" x="314.8" y="133.15"/>
<use xlink:href="#glyph-0-2" x="320.8" y="133.15"/>
<use xlink:href="#glyph-0-1" x="326.8" y="133.15"/>
<use xlink:href="#glyph-0-1" x="332.8" y="133.15"/>
<use xlink:href="#glyph-0-1" x="338.8" y="133.15"/>
<use xlink:href="#glyph-0-1" x="344.8" y="133.15"/>
<use xlink:href="#glyph-0-1" x="350.8" y="133.15"/>
<use xlink:href="#glyph-0-2" x="356.8" y="133.15"/>
  </g>
</svg>